<mxfile host="app.diagrams.net" modified="2023-10-03T13:10:42.883Z" agent="Mozilla/5.0 (Macintosh; Intel Mac OS X 10_15_7) AppleWebKit/537.36 (KHTML, like Gecko) Chrome/117.0.0.0 Safari/537.36" version="22.0.2" etag="AYmLtsE-msyPS9tRk3e7" type="github">
  <diagram name="Page-1" id="9f4DyZwSdlg1HSuDCxdp">
    <mxGraphModel>
      <root>
        <mxCell id="0" />
        <mxCell id="1" parent="0" />
      </root>
    </mxGraphModel>
  </diagram>
</mxfile>
